<?xml version="1.0" encoding="UTF-8"?>
<!DOCTYPE svg PUBLIC "-//W3C//DTD SVG 1.1//EN" "http://www.w3.org/Graphics/SVG/1.1/DTD/svg11.dtd">
<!-- Creator: CorelDRAW -->
<svg xmlns="http://www.w3.org/2000/svg" xml:space="preserve" width="100mm" height="99.06mm" version="1.1" style="shape-rendering:geometricPrecision; text-rendering:geometricPrecision; image-rendering:optimizeQuality; fill-rule:evenodd; clip-rule:evenodd"
viewBox="0 0 10000 9906"
 xmlns:xlink="http://www.w3.org/1999/xlink"
 xmlns:xodm="http://www.corel.com/coreldraw/odm/2003">
 <defs>
  <style type="text/css">
   <![CDATA[
    .fil0 {fill:#020001}
    .fil2 {fill:#545354}
    .fil1 {fill:#F4F2F2}
   ]]>
  </style>
 </defs>
 <g id="Camada_x0020_1">
  <metadata id="CorelCorpID_0Corel-Layer"/>
  <image id="Captura_x0020_de_x0020_tela_x0020_2026-03-03_x0020_135356.png" x="-3.8" y="0.01" width="10000" height="9905.97" xlink:href="logo_Images\logo_ImgID1.png"/>
  <g id="_2585728347648">
   <polygon class="fil0" points="-3.8,9905.98 9996.2,9905.98 9996.2,0.01 -3.8,0.01 "/>
   <path class="fil1" d="M7739.08 2462.83l734.56 -719.19c-15.71,55.02 -550.42,692.29 -673.31,749.86l-3525.68 3885.31c-318.35,327.24 -583.77,666.11 -878.91,970.94l-1327.82 1462.13c-165.24,197.69 -73.84,83.25 -294.9,175.24 -95.73,39.86 -185.39,150.04 -114.32,290.32 95.32,188.15 490.07,209.43 401.1,-214.23 -31.15,-148.24 197.75,-309.34 375.41,-511.23l2639.32 -2909.38c533.49,-572.24 1250.3,-1418.11 1772.97,-1957.69 315.54,-325.75 600.59,-684.14 893.49,-987.34 166.69,-172.56 276.28,-296.03 434.23,-474.22 175.84,-198.38 1235.82,-1385.56 1353.82,-1469.09l-23.49 8467.58 -3251.97 -0.25c49.39,-271.5 300.03,-487.26 342,-764.02 -149.85,14.83 -134.49,12.58 -208.11,161.58 -95.95,194.16 -342.27,610.36 -354.66,760.11 608.88,7.5 1222.31,0.44 1831.73,0.43 283.08,-0.01 1652.86,56.78 1782.7,-41.97 70.85,-74.66 34.6,-951.18 34.65,-1061.84 0.37,-871.97 59.41,-7501.8 16.95,-7821.2 -137.41,12.12 -1129.93,1031.29 -1244.57,1137.98 -214.27,199.43 -404.78,384.04 -624.24,598.65l-3103.81 2977.66c-833.38,798.72 -1650.2,1572.66 -2481.61,2377.25l-1229.11 1184.98c-163.44,153 -267.94,-5.1 -446.05,149.72 -308.25,267.94 121.81,692.61 420.14,451.07 188.68,-152.78 94.47,-267.79 50.56,-460.5l5018.71 -4814.99c280.32,-264.38 1522.27,-1490.46 1680.22,-1593.67z"/>
   <path class="fil2" d="M7739.08 2462.83c103.73,-41.45 35.34,-32.05 61.25,30.67 122.89,-57.57 657.6,-694.84 673.31,-749.86l-734.56 719.19z"/>
  </g>
 </g>
</svg>
